<svg width="960" height="1200" viewBox="0 0 960 1200" fill="none" xmlns="http://www.w3.org/2000/svg">
  <rect width="960" height="1200" rx="48" fill="#130C1F"/>
  <rect x="32" y="32" width="896" height="1136" rx="40" fill="url(#paint0_linear)"/>
  <rect x="88" y="102" width="784" height="250" rx="36" fill="#1E1035" fill-opacity="0.78"/>
  <rect x="126" y="148" width="214" height="24" rx="12" fill="#F5F3FF"/>
  <rect x="126" y="196" width="338" height="20" rx="10" fill="#DDD6FE"/>
  <rect x="126" y="252" width="176" height="26" rx="13" fill="#8B5CF6"/>
  <circle cx="732" cy="228" r="88" fill="#F5F3FF"/>
  <path d="M700 254L728 224L750 244L786 204" stroke="#7C3AED" stroke-width="20" stroke-linecap="round" stroke-linejoin="round"/>
  <rect x="88" y="404" width="786" height="708" rx="36" fill="#FFFFFF" fill-opacity="0.92"/>
  <rect x="126" y="456" width="310" height="274" rx="28" fill="#EDE9FE"/>
  <rect x="468" y="456" width="366" height="274" rx="28" fill="#0F172A"/>
  <rect x="158" y="502" width="190" height="20" rx="10" fill="#8B5CF6"/>
  <rect x="158" y="552" width="220" height="24" rx="12" fill="#0F172A"/>
  <rect x="158" y="618" width="180" height="18" rx="9" fill="#A78BFA"/>
  <rect x="500" y="502" width="182" height="20" rx="10" fill="#C4B5FD"/>
  <rect x="500" y="552" width="250" height="24" rx="12" fill="#F8FAFC"/>
  <rect x="500" y="618" width="290" height="90" rx="24" fill="#7C3AED"/>
  <rect x="126" y="776" width="708" height="288" rx="30" fill="#0F172A"/>
  <rect x="162" y="828" width="190" height="20" rx="10" fill="#C4B5FD"/>
  <rect x="162" y="878" width="310" height="24" rx="12" fill="#F8FAFC"/>
  <rect x="162" y="940" width="174" height="70" rx="22" fill="#8B5CF6"/>
  <rect x="372" y="940" width="174" height="70" rx="22" fill="#A78BFA"/>
  <rect x="582" y="940" width="214" height="70" rx="22" fill="#DDD6FE"/>
  <defs>
    <linearGradient id="paint0_linear" x1="65.5" y1="1154.5" x2="868.5" y2="63.5" gradientUnits="userSpaceOnUse">
      <stop stop-color="#F5F3FF"/>
      <stop offset="0.47" stop-color="#8B5CF6"/>
      <stop offset="1" stop-color="#EDE9FE"/>
    </linearGradient>
  </defs>
</svg>
